<svg width="830" height="146" viewBox="0 0 830 146" fill="none" xmlns="http://www.w3.org/2000/svg">
<g clip-path="url(#clip0_48_355)">
<g filter="url(#filter0_d_48_355)">
<mask id="mask0_48_355" style="mask-type:luminance" maskUnits="userSpaceOnUse" x="4" y="9" width="822" height="129">
<path d="M806 9.41931H24C12.9543 9.41931 4 17.8537 4 28.258V118.684C4 129.088 12.9543 137.523 24 137.523H806C817.046 137.523 826 129.088 826 118.684V28.258C826 17.8537 817.046 9.41931 806 9.41931Z" fill="white"/>
</mask>
<g mask="url(#mask0_48_355)">
<path d="M806 9.41931H24C12.9543 9.41931 4 17.8537 4 28.258V118.684C4 129.088 12.9543 137.523 24 137.523H806C817.046 137.523 826 129.088 826 118.684V28.258C826 17.8537 817.046 9.41931 806 9.41931Z" fill="url(#paint0_linear_48_355)"/>
<path d="M806 9.41931H24C12.9543 9.41931 4 17.8537 4 28.258V118.684C4 129.088 12.9543 137.523 24 137.523H806C817.046 137.523 826 129.088 826 118.684V28.258C826 17.8537 817.046 9.41931 806 9.41931Z" fill="url(#paint1_linear_48_355)"/>
</g>
<path d="M4 99H826V126C826 137.046 817.046 146 806 146H24C12.9543 146 4 137.046 4 126V99Z" fill="#6EB851"/>
<path d="M169 48H171V64H181V66H169V48ZM187 64H195V62H197V66H185V54H197V57.984H195V56H187V58H197V60H187V64ZM203 58H213V66H201V62H203V64H211V60H201V54H213V56H203V58ZM229 66H227V54H245V66H243V56H237V66H235V56H229V66ZM249 54H251V66H249V54ZM249 48H251V50H249V48ZM257 58H267V66H255V62H257V64H265V60H255V54H267V56H257V58ZM273 58H283V66H271V62H273V64H281V60H271V54H283V56H273V58ZM287 54H289V66H287V54ZM287 48H289V50H287V48ZM293 54H302.984V56H295V64H303V54H305V66H293V54ZM311 66H309V54H321V66H319V56H311V66ZM327 66H325V54H337V66H335V56H327V66ZM351 56H341V54H353V66H341V60.016H343V64H351V60H341V58H351V56ZM357 54H359V66H357V54ZM357 48H359V50H357V48ZM365 66H363V54H373V56H365V66ZM379 64H387V62H389V66H377V54H389V57.984H387V56H379V58H389V60H379V64ZM395 58H405V66H393V62H395V64H403V60H393V54H405V56H395V58ZM421 64H429V62H431V66H419V54H431V57.984H429V56H421V58H431V60H421V64ZM435 54H437V48H439V54H445V56H439V64H445V66H437V56H435V54ZM459 48H461V64H471V66H459V48ZM477 64H485V62H487V66H475V54H487V57.984H485V56H477V58H487V60H477V64ZM493 58H503V66H491V62H493V64H501V60H491V54H503V56H493V58ZM517 54H529V56H519V64H529V66H517V54ZM543 56H533V54H545V66H533V60.016H535V64H543V60H533V58H543V56ZM551 66H549V54H561V66H559V56H551V66ZM567 66H565V54H577V66H575V56H567V66ZM581 54H583V66H581V54ZM581 48H583V50H581V48ZM587 48H589V54H596.984V56H589V64H597V54H599V66H587V48ZM613 56H603V54H615V66H603V60.016H605V64H613V60H603V58H613V56ZM619 48H621V64H625V66H619V48ZM631 64H639V62H641V66H629V54H641V57.984H639V56H631V58H641V60H631V64ZM647 58H657V66H645V62H647V64H655V60H645V54H657V56H647V58Z" fill="black"/>
<path d="M338 112H340.008V115H342.992V116H340.008V120H343V115H345.008V121H338V112ZM347 122H352V121H347V115H349.008V120H352V115H354.008V123H347V122ZM364 112H368.008V121H361V118H363.008V120H366V113H364V112ZM370 115H374.992V116H372.008V120H375V115H377.008V121H370V115ZM381.008 117H386.008V121H379V119H381.008V120H384V118H379V115H386.008V116H381.008V117ZM390.008 117H395.008V121H388V119H390.008V120H393V118H388V115H395.008V116H390.008V117ZM397 115H399.008V120H402V115H404.008V121H397V115ZM411 116H406V115H413.008V121H406V118.008H408.008V120H411V118H406V117H411V116ZM425 116H420V115H427.008V121H420V118.008H422.008V120H425V118H420V117H425V116ZM431.008 121H429V115H436.008V121H434V116H431.008V121ZM445.008 121H438V115H440.008V120H443V116H440.016V115H443V112H445.008V121ZM454.016 117H458V113H454.008V121H452V112H460.008V118H459.008V119H460.008V121H458V119H457V118H454.016V117ZM464.008 120H467V119H469.008V121H462V115H469.008V116.992H467V116H464.008V117H469.008V118H464.008V120ZM465 113H466V112H468.008V113H467.008V114H465V113ZM473.008 121H471V115H481.008V121H479V116H477.008V121H475V116H473.008V121ZM483 122H488V121H483V115H485.008V120H488V115H490.008V123H483V122Z" fill="black"/>
</g>
<path d="M92.718 11.1653C94.8458 11.8643 97.671 13.7415 99.0891 15.3987C100.488 17.033 101.351 18.5463 101.054 18.8435C100.81 19.0866 74.753 25.881 74.0639 25.881C72.9708 25.881 74.04 20.3586 75.6733 17.5708C76.9881 15.3262 79.4387 13.0493 81.7633 11.9114C83.4147 11.1033 84.3433 10.9225 87.458 10.8029C90.0137 10.7047 91.6615 10.8185 92.718 11.1653Z" fill="#FCA1A1"/>
<path d="M86.17 51.544C88.7945 53.6734 91.0343 55.5085 91.147 55.6223C91.2597 55.7361 91.539 65.8756 91.7684 78.1554L92.185 100.482L92.3528 117.202L92.585 127.077C93.0509 146.886 93.6063 182.843 93.4487 183.001C93.3596 183.09 92.2325 182.684 90.9441 182.1C87.4076 180.496 84.3349 179.811 80.6727 179.81C75.4407 179.81 71.3292 181.55 66.4649 185.825C62.6582 189.171 55.7222 191.35 53.5041 189.896C53.0034 189.568 52.594 189.066 52.594 188.779C52.594 188.493 53.3089 186.826 54.1824 185.073C56.1091 181.21 57.4315 177.587 58.5862 173.009C60.4253 165.719 60.6046 163.446 60.9336 143.241C61.2568 123.424 61.6644 112.912 62.5759 100.895C64.5722 74.5725 68.6935 56.8352 74.2911 50.475C76.066 48.4583 77.7141 47.6157 79.8217 47.6484C81.2709 47.6708 81.7803 47.9832 86.17 51.544Z" fill="#23B9FF"/>
<path fill-rule="evenodd" clip-rule="evenodd" d="M79.9579 0.152761C80.3622 0.305688 81.7376 1.79654 83.0147 3.46568L85.3367 6.50066L87.9457 6.36875C94.6802 6.02883 101.882 10.476 104.944 16.8645C105.643 18.3245 106.215 19.9466 106.215 20.4695C106.215 21.5186 105.227 22.6195 104.285 22.6195C103.515 22.6195 103.523 22.7841 104.426 25.3711C105.461 28.338 107.3 35.6458 107.301 36.7993C107.303 38.2358 98.2645 49.5483 95.7776 51.2222L93.8795 52.5L95.5273 53.7422L95.8026 71.0675C95.9544 80.596 96.199 91.2462 96.3461 94.7341L96.6142 101.076L96.8845 116.992C96.7616 117.115 96.9341 133.06 97.2674 152.427C97.8221 184.633 97.8247 187.693 97.2968 188.276C96.9798 188.627 96.328 188.963 95.849 189.024C95.2639 189.099 98.342 190.643 105.216 193.723C116.408 198.738 117.087 199.205 115.877 201.052L115.256 202H96.6638C86.4381 202 75.0842 201.892 71.4328 201.759C63.0045 201.454 63.3433 201.692 63.6907 196.312C63.9299 192.616 63.9114 192.467 63.2487 192.723C56.579 195.3 52.8085 195.305 50.247 192.743C49.517 192.013 48.7844 190.776 48.496 189.786L48 188.085L50.0441 184.08C53.3092 177.683 55.2813 170.794 56.2153 162.524C56.4276 160.644 56.6718 152.246 56.7573 143.862C57.1359 106.87 59.1619 82.812 63.3349 65.7564C65.8678 55.4045 70.0749 47.469 74.4697 44.7518L75.6512 44.0216L74.5911 40.8507C73.8259 38.5623 73.4759 36.688 73.3342 34.1176C73.1803 31.3175 73.0328 30.596 72.6451 30.7449C72.3741 30.8489 71.7622 30.7855 71.285 30.6043C70.0927 30.151 69.5155 28.1792 69.5318 24.6148C69.5619 18.0763 73.6436 11.3128 79.2489 8.51262C80.1318 8.07159 80.8539 7.63492 80.8539 7.54215C80.8539 7.44902 80.0387 6.30932 79.0424 5.00908C77.0964 2.46985 76.87 1.66101 77.8649 0.806503C78.8594 -0.0476379 79.1717 -0.145119 79.9579 0.152761ZM99.0891 15.3987C97.671 13.7415 94.8458 11.8643 92.718 11.1653C91.6615 10.8185 90.0137 10.7047 87.458 10.8029C84.3433 10.9225 83.4147 11.1033 81.7633 11.9114C79.4387 13.0493 76.9881 15.3262 75.6733 17.5708C74.04 20.3586 72.9708 25.881 74.0639 25.881C74.753 25.881 100.81 19.0866 101.054 18.8435C101.351 18.5463 100.488 17.033 99.0891 15.3987ZM102.854 36.3742C103.092 35.4628 100.643 26.3061 99.6398 24.3543C99.4641 24.0129 99.1192 23.8013 98.8732 23.8839C98.6272 23.9665 94.2683 25.1109 89.1869 26.4275C84.1056 27.744 79.3137 28.9874 78.538 29.1907L77.1279 29.5606L77.3631 32.9094C77.6171 36.5199 78.2873 39.557 79.3072 41.7165C79.8376 42.8392 80.1981 43.1225 81.3973 43.3588C82.4046 43.5578 83.8958 44.4829 86.2867 46.3923C90.1728 49.4962 90.7474 49.6071 93.5009 47.7846C94.9407 46.8315 102.545 37.5541 102.854 36.3742ZM91.147 55.6223C91.0343 55.5085 88.7945 53.6734 86.17 51.544C81.7803 47.9832 81.2709 47.6708 79.8217 47.6484C77.7141 47.6157 76.066 48.4583 74.2911 50.475C68.6935 56.8352 64.5722 74.5725 62.5759 100.895C61.6644 112.912 61.2568 123.424 60.9336 143.241C60.6046 163.446 60.4253 165.719 58.5862 173.009C57.4315 177.587 56.1091 181.21 54.1824 185.073C53.3089 186.826 52.594 188.493 52.594 188.779C52.594 189.066 53.0034 189.568 53.5041 189.896C55.7222 191.35 62.6582 189.171 66.4649 185.825C71.3292 181.55 75.4407 179.81 80.6727 179.81C84.3349 179.811 87.4076 180.496 90.9441 182.1C92.2325 182.684 93.3596 183.09 93.4487 183.001C93.6063 182.843 93.0509 146.886 92.585 127.077L92.3528 117.202L92.185 100.482L91.7684 78.1554C91.539 65.8756 91.2597 55.7361 91.147 55.6223ZM89.4293 187.921C89.6731 185.862 89.496 185.691 86.2171 184.808C85.1603 184.524 84.1962 184.28 84.0741 184.267C83.8219 184.24 83.2426 197.263 83.4853 197.505C83.5723 197.592 88.1109 197.62 93.5708 197.567L103.498 197.47L96.7435 194.438C89.2503 191.074 89.0742 190.918 89.4293 187.921ZM79.4087 187.776C79.4108 187.328 79.5137 186.35 79.6373 185.602C79.8202 184.495 79.7521 184.243 79.271 184.243C78.7902 184.243 78.6801 184.649 78.6801 186.417C78.6801 187.625 78.8409 188.592 79.0424 188.592C79.2416 188.592 79.4065 188.225 79.4087 187.776ZM77.1961 192.302C74.9135 191.145 74.3451 190.209 74.3378 187.595C74.3349 186.549 74.1878 185.693 74.0114 185.693C73.5578 185.693 69.526 188.421 68.8188 189.207C68.396 189.676 68.1576 190.955 67.9714 193.756L67.712 197.651H78.959L79.2116 195.628C79.3507 194.515 79.3945 193.534 79.3094 193.449C79.2239 193.364 78.2732 192.847 77.1961 192.302Z" fill="black"/>
<path fill-rule="evenodd" clip-rule="evenodd" d="M99.6398 24.3543C100.643 26.3061 103.092 35.4628 102.854 36.3742C102.545 37.5541 94.9407 46.8315 93.5009 47.7846C90.7474 49.6071 90.1728 49.4962 86.2867 46.3923C83.8958 44.4829 82.4046 43.5578 81.3973 43.3588C80.1981 43.1225 79.8376 42.8392 79.3072 41.7165C78.2873 39.557 77.6171 36.5199 77.3631 32.9094L77.1279 29.5606L78.538 29.1907C79.3137 28.9874 84.1056 27.744 89.1869 26.4275C94.2683 25.1109 98.6272 23.9665 98.8732 23.8839C99.1192 23.8013 99.4641 24.0129 99.6398 24.3543ZM95.274 30.9544C95.5823 30.9544 97.1576 27.9158 97.1576 27.3207C97.1576 26.5902 96.779 27.024 95.8957 28.7681C94.9027 30.7279 94.8385 30.9544 95.274 30.9544Z" fill="#FFF3D1"/>
<path d="M97.1576 27.3207C97.1576 27.9158 95.5823 30.9544 95.274 30.9544C94.8385 30.9544 94.9027 30.7279 95.8957 28.7681C96.779 27.024 97.1576 26.5902 97.1576 27.3207Z" fill="black"/>
<path fill-rule="evenodd" clip-rule="evenodd" d="M92.718 11.1653C94.8458 11.8643 97.671 13.7415 99.0891 15.3987C100.488 17.033 101.351 18.5463 101.054 18.8435C100.81 19.0866 74.753 25.881 74.0639 25.881C72.9708 25.881 74.04 20.3586 75.6733 17.5708C76.9881 15.3262 79.4387 13.0493 81.7633 11.9114C83.4147 11.1033 84.3433 10.9225 87.458 10.8029C90.0137 10.7047 91.6615 10.8185 92.718 11.1653Z" fill="#FCA1A1"/>
<path d="M86.2171 184.808C89.496 185.691 89.6731 185.862 89.4293 187.921C89.0742 190.918 89.2503 191.074 96.7435 194.438L103.498 197.47L93.5708 197.567C88.1109 197.62 83.5723 197.592 83.4853 197.505C83.2426 197.263 83.8219 184.24 84.0741 184.267C84.1962 184.28 85.1603 184.524 86.2171 184.808Z" fill="#FFF3D1"/>
<path d="M74.3378 187.595C74.3451 190.209 74.9135 191.145 77.1961 192.302C78.2732 192.847 79.2239 193.364 79.3094 193.449C79.3945 193.534 79.3507 194.515 79.2116 195.628L78.959 197.651H67.712L67.9714 193.756C68.1576 190.955 68.396 189.676 68.8188 189.207C69.526 188.421 73.5578 185.693 74.0114 185.693C74.1878 185.693 74.3349 186.549 74.3378 187.595Z" fill="#FFF3D1"/>
<path fill-rule="evenodd" clip-rule="evenodd" d="M117.39 97.4638C113.628 95.1055 112.933 94.547 105.404 87.8225C101.009 83.8966 96.6859 80.0988 95.7983 79.3826L94.184 78.081L92.7364 79.0707C90.2033 80.8023 88.755 81.9426 88.7994 82.1707C88.8427 82.3948 112.159 98.512 113.369 99.1542C114.075 99.5286 121.476 100.438 121.419 100.143C121.4 100.046 119.587 98.8405 117.39 97.4638Z" fill="black"/>
<path d="M105.404 87.8225C112.933 94.547 113.628 95.1055 117.39 97.4638C119.587 98.8405 121.4 100.046 121.419 100.143C121.476 100.438 114.075 99.5286 113.369 99.1542C112.159 98.512 88.8427 82.3948 88.7994 82.1707C88.755 81.9426 90.2033 80.8023 92.7364 79.0707L94.184 78.081L95.7983 79.3826C96.6859 80.0988 101.009 83.8966 105.404 87.8225Z" fill="#FFF3D1"/>
<path fill-rule="evenodd" clip-rule="evenodd" d="M98.5539 76.8413L115.677 92.0138L123.07 96.6683C127.137 99.2282 130.813 101.598 131.24 101.935C132.176 102.673 132.267 104.311 131.403 104.859C131.07 105.07 126.926 104.772 121.69 104.161L112.558 103.095L101.539 95.5622C95.4782 91.4193 90.3863 88.0375 90.2235 88.0477L86.5272 85.4189L82.0901 81.8674C80.6174 80.7273 80.4171 80.4504 80.4322 79.5736C80.4486 78.6224 83.4367 80.6681 88.1002 77.2851C92.114 74.3736 93.2022 73.7371 94.1796 73.728L95.3704 73.7173L98.5539 76.8413ZM117.39 97.4638C113.628 95.1055 112.933 94.547 105.404 87.8225C101.009 83.8966 96.6859 80.0988 95.7983 79.3826L94.184 78.081L92.7364 79.0707C90.2033 80.8023 88.755 81.9426 88.7994 82.1707C88.8427 82.3948 112.159 98.512 113.369 99.1542C114.075 99.5286 121.476 100.438 121.419 100.143C121.4 100.046 119.587 98.8405 117.39 97.4638Z" fill="black"/>
<path d="M764.759 71.0679C761.777 73.7682 757.421 75.2885 753.365 75.044C752.092 74.9674 750.868 74.8603 750.645 74.806C750.315 74.7261 750.223 75.0997 750.159 76.7783C750.091 78.5884 750.656 82.5519 751.038 82.9341C751.112 83.0086 751.661 82.6274 752.258 82.0874C752.854 81.547 753.652 81.0276 754.029 80.9325C755.399 80.5883 756.873 82.2778 756.361 83.6043C756.231 83.9407 755.212 85.0852 754.096 86.1482C751.843 88.2935 751.088 89.4375 749.81 92.6371C749.071 94.4888 748.924 95.2527 748.814 97.7987C748.743 99.4423 748.817 101.492 748.979 102.353C749.314 104.141 749.081 105.071 748.178 105.555C747.801 105.757 745.493 105.918 741.861 105.995C738.713 106.061 735.889 106.165 735.586 106.226C735.123 106.319 735.025 106.572 734.973 107.807C734.939 108.615 734.742 109.842 734.534 110.533L734.157 111.789L735.689 111.799C736.533 111.804 740.634 111.92 744.804 112.056L752.385 112.303L754.566 111.231C758.969 109.066 762.085 106.101 763.83 102.417C765.421 99.0582 765.655 97.6048 765.453 92.3383L765.275 87.6929L767.451 84.6809C768.648 83.0243 769.753 81.3349 769.909 80.9266C770.368 79.7166 770.263 77.5506 769.604 74.5917C769.027 72.0024 768.911 71.7487 767.901 70.8826C767.305 70.3716 766.626 69.9582 766.391 69.9644C766.157 69.9707 765.423 70.4673 764.759 71.0679Z" fill="#8D7100"/>
<path fill-rule="evenodd" clip-rule="evenodd" d="M743.101 33.2666C745.547 30.9034 746.775 29.9881 748.402 29.3182C750.105 28.6165 752.506 28.4535 753.812 28.9509C755.029 29.4144 757.298 31.2984 758.138 32.5423C758.827 33.5629 758.91 33.9213 758.913 35.8664C758.916 38.6925 758.409 39.8106 756.254 41.7316C755.332 42.5539 754.438 43.3097 754.268 43.4113C754.099 43.5131 752.489 43.7242 750.691 43.8804C747.722 44.1388 747.216 44.1135 745.169 43.6052C743.124 43.097 742.811 42.9283 741.764 41.7691C740.654 40.5395 740.612 40.4276 740.618 38.7194C740.625 36.4284 741.251 35.0546 743.101 33.2666ZM744.679 38.251C744.679 37.379 747.339 34.567 749.153 33.5219C751.17 32.3597 752.236 32.4499 753.758 33.9115C754.782 34.8941 754.983 35.2538 754.983 36.1005C754.983 36.9221 754.762 37.3483 753.814 38.3537C752.645 39.5936 752.644 39.5939 750.221 39.8169C747.83 40.0372 745.791 39.7886 745.018 39.1828C744.832 39.0367 744.679 38.6175 744.679 38.251Z" fill="black"/>
<path fill-rule="evenodd" clip-rule="evenodd" d="M767.258 0.187792C766.517 0.55345 766.333 1.04081 762.954 11.6137L760.285 19.9673H757.789H755.294L755.206 15.8676C755.122 11.938 755.092 11.7468 754.479 11.2494C753.612 10.5468 752.496 10.5922 751.777 11.3594C751.226 11.9467 751.187 12.2545 751.187 16.0127V20.0374L748.408 19.8423C746.879 19.735 745.595 19.5666 745.553 19.4677C745.512 19.3688 743.926 16.2952 742.028 12.6373C738.26 5.37465 737.881 4.90196 736.333 5.54417C735.324 5.9628 734.785 7.09537 735.15 8.03206C735.291 8.39582 736.822 11.4376 738.552 14.7916C740.281 18.1455 741.696 21.0205 741.696 21.18C741.696 21.3397 740.995 21.888 740.137 22.3984C737.036 24.2449 734.317 27.7276 733.15 31.3511C732.391 33.7053 732.693 36.674 733.997 39.6941C734.961 41.9264 735.04 42.3021 735.046 44.6886C735.053 47.1233 734.993 47.4001 733.991 49.5772C732.619 52.5573 732.569 53.8711 733.779 55.0838C734.986 56.2922 737.125 56.4125 740.79 55.4774C744.478 54.5364 752.965 53.0059 753.453 53.1933C754.037 53.4182 756.066 56.9596 756.245 58.0694C756.429 59.2049 756.256 59.3383 754.5 59.4149C753.362 59.4646 752.895 59.3182 751.557 58.4913C749.01 56.9175 744.601 56.4057 742.363 57.4242C739.609 58.6776 738.734 61.8322 740.393 64.529C740.712 65.047 741.395 66.3103 741.911 67.3361C742.428 68.3624 743.608 70.012 744.536 71.0035L746.222 72.8057L746.094 76.0027C745.954 79.5074 746.223 81.4229 747.298 84.5704L747.976 86.5554L746.727 89.359C745.176 92.8412 744.69 95.0835 744.684 98.7857C744.679 101.55 744.653 101.682 744.069 101.838C743.734 101.928 741.418 102.004 738.924 102.006L734.389 102.01L733.946 101.152C733.376 100.048 731.203 97.7191 730.316 97.2611C729.681 96.9335 723.109 95.7613 721.908 95.7613C721.617 95.7613 720.7 96.0161 719.868 96.3277C716.463 97.6039 713.32 101.86 713.032 105.585C712.793 108.689 713.9 112.092 715.857 114.262C717.479 116.061 718.639 116.55 722.792 117.188L726.531 117.763L728.487 116.776L730.443 115.789L738.036 115.965C742.212 116.062 747.123 116.218 748.95 116.311L752.272 116.481V117.365C752.272 118.172 752.184 118.265 751.255 118.435C750.696 118.537 749.14 119.083 747.798 119.649C744.618 120.988 741.726 121.462 739.596 120.993C738.738 120.805 736.693 120.643 735.053 120.634C731.677 120.616 730.681 120.981 729.563 122.643C728.417 124.346 728.964 126.641 731.287 129.886L732.749 131.927L732.07 132.82C731.447 133.638 731.202 133.738 729.125 134.03C722.143 135.008 718.647 137.069 718.647 140.209C718.647 142.491 720.907 144.866 725.872 147.802L728.935 149.613L740.08 161.163C746.486 167.802 751.123 172.815 750.986 172.952C750.855 173.083 748.254 174.297 745.205 175.648C738.8 178.488 737.943 179.172 738.611 180.915C739.048 182.058 739.442 182.082 755.779 181.939L771.352 181.803L771.981 181.174C772.327 180.827 772.609 180.216 772.609 179.812C772.609 179.019 772.121 178.492 766.791 173.514L763.82 170.74H773.889H783.959L784.52 170.024C785.689 168.536 785.121 167.713 781.627 165.837C772.957 161.183 765.864 154.749 760.564 146.733C758.075 142.968 755.373 137.869 755.867 137.869C755.905 137.869 756.347 137.987 756.849 138.131C758.177 138.513 763.994 139.495 765.21 139.542C767.006 139.613 769.076 138.736 770.74 137.2C771.576 136.428 773.526 135.017 775.071 134.065C778.569 131.912 779.99 130.615 780.907 128.736C782.863 124.731 780.257 120.336 773.125 115.608C771.343 114.427 769.765 113.42 769.618 113.372C769.467 113.321 769.226 110.755 769.061 107.442C768.792 102.037 768.81 101.409 769.3 99.0147C769.759 96.7716 769.799 95.9305 769.601 92.6887L769.372 88.9501L771.394 86.2281C774.554 81.9749 774.969 79.6003 773.599 73.6207C772.764 69.9804 772.116 68.7824 770.254 67.4431C769.61 66.9799 769.084 66.5597 769.084 66.5089C769.084 66.4583 769.898 65.348 770.894 64.0422C772.988 61.294 776.819 55.5532 778.991 51.9067L780.495 49.3811L787.107 52.1966C790.744 53.7448 794.012 55.0118 794.37 55.0118C795.209 55.0118 796.2 53.9521 796.2 53.0548C796.2 52.6701 795.987 52.1001 795.726 51.7883C795.465 51.4761 792.384 49.9991 788.879 48.5058C785.374 47.0124 782.511 45.6954 782.516 45.5791C782.521 45.4629 782.853 44.3637 783.254 43.1363C784.051 40.696 784.535 38.1331 784.538 36.335L784.54 35.1804H790.188C795.74 35.1804 795.845 35.1698 796.424 34.5518C797.184 33.7414 797.193 32.4391 796.444 31.7588C795.928 31.2908 795.278 31.2283 789.634 31.1055L783.394 30.9696L782.679 29.2082C781.809 27.065 779.696 24.8238 777.422 23.6347C776.565 23.1865 775.865 22.7586 775.865 22.6839C775.865 22.6092 777.822 21.2789 780.213 19.7274C785.627 16.2143 786.066 15.6661 784.721 14.0991C783.617 12.8131 783.006 13.0489 776.533 17.2621L770.613 21.1151L767.672 20.7758C766.055 20.5891 764.681 20.355 764.62 20.2555C764.558 20.1561 765.782 16.1197 767.338 11.2858C768.895 6.45207 770.169 2.22391 770.169 1.89003C770.169 0.548832 768.502 -0.425895 767.258 0.187792ZM737.86 38.3045C735.592 33.5282 737.369 29.1357 743.075 25.4215L745.402 23.9064L753.243 23.98C767.367 24.1123 774.331 25.5163 777.562 28.8819C778.09 29.4326 778.923 30.7999 779.413 31.9205C780.215 33.7564 780.302 34.2133 780.3 36.5387C780.298 38.7294 780.165 39.5096 779.421 41.7003C778.399 44.7085 776.954 47.4794 773.752 52.5668C767.239 62.9134 762.583 68.3635 758.891 69.9603C754.718 71.7653 750.355 71.0883 747.553 68.2008C746.273 66.8813 743.469 61.6839 743.772 61.1927C743.88 61.0175 744.725 60.9743 746.044 61.0761C747.71 61.2049 748.431 61.4084 749.536 62.0607C751.992 63.5113 753.367 63.8275 755.609 63.4567C757.9 63.0778 758.951 62.5257 759.819 61.2454C761.142 59.2932 760.243 55.65 757.396 51.4318C756.03 49.4074 755.711 49.1366 754.446 48.9301C753.379 48.756 742.646 50.6432 739.837 51.4987C737.402 52.2406 737.244 52.2159 737.78 51.1776C739.822 47.2227 739.851 42.4955 737.86 38.3045ZM753.365 75.044C757.421 75.2885 761.777 73.7682 764.759 71.0679C765.423 70.4673 766.157 69.9707 766.391 69.9644C766.626 69.9582 767.305 70.3716 767.901 70.8826C768.911 71.7487 769.027 72.0024 769.604 74.5917C770.263 77.5506 770.368 79.7166 769.909 80.9266C769.753 81.3349 768.648 83.0243 767.451 84.6809L765.275 87.6929L765.453 92.3383C765.655 97.6048 765.421 99.0582 763.83 102.417C762.085 106.101 758.969 109.066 754.566 111.231L752.385 112.303L744.804 112.056C740.634 111.92 736.533 111.804 735.689 111.799L734.157 111.789L734.534 110.533C734.742 109.842 734.939 108.615 734.973 107.807C735.025 106.572 735.123 106.319 735.586 106.226C735.889 106.165 738.713 106.061 741.861 105.995C745.493 105.918 747.801 105.757 748.178 105.555C749.081 105.071 749.314 104.141 748.979 102.353C748.817 101.492 748.743 99.4423 748.814 97.7987C748.924 95.2527 749.071 94.4888 749.81 92.6371C751.088 89.4375 751.843 88.2935 754.096 86.1482C755.212 85.0852 756.231 83.9407 756.361 83.6043C756.873 82.2778 755.399 80.5883 754.029 80.9325C753.652 81.0276 752.854 81.547 752.258 82.0874C751.661 82.6274 751.112 83.0086 751.038 82.9341C750.656 82.5519 750.091 78.5884 750.159 76.7783C750.223 75.0997 750.315 74.7261 750.645 74.806C750.868 74.8603 752.092 74.9674 753.365 75.044ZM717.245 107.568C716.725 104.99 718.16 102.067 720.649 100.641C721.412 100.203 722.22 99.8968 722.444 99.9601C722.667 100.023 723.827 100.212 725.02 100.379C726.213 100.546 727.587 100.808 728.073 100.961C729.286 101.342 730.216 102.671 730.423 104.319C730.516 105.066 730.662 106.252 730.747 106.954C731.047 109.456 729.93 111.418 727.503 112.649L725.919 113.452L722.964 112.996C720.095 112.554 719.981 112.51 719.045 111.472C717.975 110.285 717.651 109.584 717.245 107.568ZM758.716 113.691C759.84 113.019 761.687 111.596 762.821 110.529L764.881 108.589L765.155 111.981C765.402 115.041 765.491 115.424 766.066 115.891C766.417 116.175 766.873 116.408 767.08 116.408C767.287 116.408 767.457 116.508 767.457 116.632C767.457 116.755 768.629 117.58 770.063 118.465C772.89 120.212 775.772 122.683 776.66 124.123C776.969 124.625 777.219 125.493 777.219 126.068C777.219 126.972 777.024 127.297 775.721 128.561C774.216 130.021 773.694 130.167 773.694 129.125C773.694 128.041 771.973 125.078 770.331 123.332C768.49 121.376 767.539 121.082 766.424 122.123C765.383 123.094 765.618 124.318 767.177 126.041C769.005 128.064 769.626 129.364 769.626 131.165C769.626 132.572 769.571 132.685 768.301 133.874C766.256 135.791 766.487 135.791 756.475 133.893C754.184 133.459 751.412 133.536 749.083 134.098C744.549 135.191 737.629 140.266 737.629 142.498C737.629 143.454 740.567 148.853 743.462 153.218C747.297 159 753.4 166.112 760.926 173.572C763.176 175.802 765.016 177.666 765.016 177.715C765.016 177.764 761.813 177.793 757.898 177.781L750.78 177.759L753.356 176.538C756.489 175.053 756.882 174.721 756.882 173.551C756.882 172.721 755.779 171.501 744.095 159.406L731.309 146.169L728.325 144.532C726.685 143.632 724.723 142.33 723.967 141.639C722.758 140.537 722.636 140.329 722.96 139.938C723.497 139.289 726.477 138.476 729.954 138.03C731.623 137.816 733.161 137.539 733.372 137.415C733.582 137.291 734.924 135.829 736.355 134.166C741.988 127.616 748.101 123.189 752.678 122.343C755.868 121.754 756.337 121.314 756.342 118.908C756.343 118.205 756.418 117.019 756.508 116.272C756.672 114.918 756.679 114.91 758.716 113.691ZM735.102 128.149C734.373 127.492 733.018 125.051 733.209 124.74C733.395 124.439 737.712 124.669 738.677 125.031C739.294 125.263 739.248 125.336 737.47 126.944C735.694 128.55 735.599 128.598 735.102 128.149ZM745.921 140.008C746.151 139.634 747.648 138.911 749.289 138.38C750.109 138.115 750.848 137.892 750.931 137.884C751.014 137.876 751.502 138.753 752.016 139.834C757.14 150.614 763.776 158.742 772.638 165.088L774.84 166.665H767.352C763.234 166.665 759.866 166.574 759.869 166.462C759.871 166.349 760.839 165.722 762.02 165.066C764.356 163.771 764.974 162.95 764.515 161.757C764.375 161.394 760.101 156.405 755.016 150.672C749.932 144.939 745.839 140.14 745.921 140.008ZM743.507 145.434C742.809 144.141 742.239 143.003 742.239 142.905C742.239 142.807 742.361 142.803 742.512 142.896C742.933 143.156 759.394 161.796 759.283 161.887C759.23 161.932 758.624 162.293 757.936 162.69L756.685 163.413L756.038 162.614C755.682 162.175 754.466 160.737 753.337 159.418C749.374 154.791 745.855 149.784 743.507 145.434Z" fill="black"/>
<path fill-rule="evenodd" clip-rule="evenodd" d="M743.075 25.4215C737.369 29.1357 735.592 33.5282 737.86 38.3045C739.851 42.4955 739.822 47.2227 737.78 51.1776C737.244 52.2159 737.402 52.2406 739.837 51.4987C742.646 50.6432 753.379 48.756 754.446 48.9301C755.711 49.1366 756.03 49.4074 757.396 51.4318C760.243 55.65 761.142 59.2932 759.819 61.2454C758.951 62.5257 757.9 63.0778 755.609 63.4567C753.367 63.8275 751.992 63.5113 749.536 62.0607C748.431 61.4084 747.71 61.2049 746.044 61.0761C744.725 60.9743 743.88 61.0175 743.772 61.1927C743.469 61.6839 746.273 66.8813 747.553 68.2008C750.355 71.0883 754.718 71.7653 758.891 69.9603C762.583 68.3635 767.239 62.9134 773.752 52.5668C776.954 47.4794 778.399 44.7085 779.421 41.7003C780.165 39.5096 780.298 38.7294 780.3 36.5387C780.302 34.2133 780.215 33.7564 779.413 31.9205C778.923 30.7999 778.09 29.4326 777.562 28.8819C774.331 25.5163 767.367 24.1123 753.243 23.98L745.402 23.9064L743.075 25.4215ZM743.101 33.2666C745.547 30.9034 746.775 29.9881 748.402 29.3182C750.105 28.6165 752.506 28.4535 753.812 28.9509C755.029 29.4144 757.298 31.2984 758.138 32.5423C758.827 33.5629 758.91 33.9213 758.913 35.8664C758.916 38.6925 758.409 39.8106 756.254 41.7316C755.332 42.5539 754.438 43.3097 754.268 43.4113C754.099 43.5131 752.489 43.7242 750.691 43.8804C747.722 44.1388 747.216 44.1135 745.169 43.6052C743.124 43.097 742.811 42.9283 741.764 41.7691C740.654 40.5395 740.612 40.4276 740.618 38.7194C740.625 36.4284 741.251 35.0546 743.101 33.2666Z" fill="#8D7100"/>
<path d="M762.821 110.529C761.687 111.596 759.84 113.019 758.716 113.691C756.679 114.91 756.672 114.918 756.508 116.272C756.418 117.019 756.343 118.205 756.342 118.908C756.337 121.314 755.868 121.754 752.678 122.343C748.101 123.189 741.988 127.616 736.355 134.166C734.924 135.829 733.582 137.291 733.372 137.415C733.161 137.539 731.623 137.816 729.954 138.03C726.477 138.476 723.497 139.289 722.96 139.938C722.636 140.329 722.758 140.537 723.967 141.639C724.723 142.33 726.685 143.632 728.325 144.532L731.309 146.169L744.095 159.406C755.779 171.501 756.882 172.721 756.882 173.551C756.882 174.721 756.489 175.053 753.356 176.538L750.78 177.759L757.898 177.781C761.813 177.793 765.016 177.764 765.016 177.715C765.016 177.666 763.176 175.802 760.926 173.572C753.4 166.112 747.297 159 743.462 153.218C740.567 148.853 737.629 143.454 737.629 142.498C737.629 140.266 744.549 135.191 749.083 134.098C751.412 133.536 754.184 133.459 756.475 133.893C766.487 135.791 766.256 135.791 768.301 133.874C769.571 132.685 769.626 132.572 769.626 131.165C769.626 129.364 769.005 128.064 767.177 126.041C765.618 124.318 765.383 123.094 766.424 122.123C767.539 121.082 768.49 121.376 770.331 123.332C771.973 125.078 773.694 128.041 773.694 129.125C773.694 130.167 774.216 130.021 775.721 128.561C777.024 127.297 777.219 126.972 777.219 126.068C777.219 125.493 776.969 124.625 776.66 124.123C775.772 122.683 772.89 120.212 770.063 118.465C768.629 117.58 767.457 116.755 767.457 116.632C767.457 116.508 767.287 116.408 767.08 116.408C766.873 116.408 766.417 116.175 766.066 115.891C765.491 115.424 765.402 115.041 765.155 111.981L764.881 108.589L762.821 110.529Z" fill="#8D7100"/>
<path d="M720.649 100.641C718.16 102.067 716.725 104.99 717.245 107.568C717.651 109.584 717.975 110.285 719.045 111.472C719.981 112.51 720.095 112.554 722.964 112.996L725.919 113.452L727.503 112.649C729.93 111.418 731.047 109.456 730.747 106.954C730.662 106.252 730.516 105.066 730.423 104.319C730.216 102.671 729.286 101.342 728.073 100.961C727.587 100.808 726.213 100.546 725.02 100.379C723.827 100.212 722.667 100.023 722.444 99.9601C722.22 99.8968 721.412 100.203 720.649 100.641Z" fill="#663300"/>
<path d="M749.289 138.38C747.648 138.911 746.151 139.634 745.921 140.008C745.839 140.14 749.932 144.939 755.016 150.672C760.101 156.405 764.375 161.394 764.515 161.757C764.974 162.95 764.356 163.771 762.02 165.066C760.839 165.722 759.871 166.349 759.869 166.462C759.866 166.574 763.234 166.665 767.352 166.665H774.84L772.638 165.088C763.776 158.742 757.14 150.614 752.016 139.834C751.502 138.753 751.014 137.876 750.931 137.884C750.848 137.892 750.109 138.115 749.289 138.38Z" fill="#8D7100"/>
<path d="M733.209 124.74C733.018 125.051 734.373 127.492 735.102 128.149C735.599 128.598 735.694 128.55 737.47 126.944C739.248 125.336 739.294 125.263 738.677 125.031C737.712 124.669 733.395 124.439 733.209 124.74Z" fill="#8D7100"/>
</g>
<defs>
<filter id="filter0_d_48_355" x="0" y="6.41931" width="830" height="144.581" filterUnits="userSpaceOnUse" color-interpolation-filters="sRGB">
<feFlood flood-opacity="0" result="BackgroundImageFix"/>
<feColorMatrix in="SourceAlpha" type="matrix" values="0 0 0 0 0 0 0 0 0 0 0 0 0 0 0 0 0 0 127 0" result="hardAlpha"/>
<feOffset dy="1"/>
<feGaussianBlur stdDeviation="2"/>
<feComposite in2="hardAlpha" operator="out"/>
<feColorMatrix type="matrix" values="0 0 0 0 0 0 0 0 0 0 0 0 0 0 0 0 0 0 0.15 0"/>
<feBlend mode="normal" in2="BackgroundImageFix" result="effect1_dropShadow_48_355"/>
<feBlend mode="normal" in="SourceGraphic" in2="effect1_dropShadow_48_355" result="shape"/>
</filter>
<linearGradient id="paint0_linear_48_355" x1="4" y1="73.4709" x2="826" y2="73.4709" gradientUnits="userSpaceOnUse">
<stop stop-color="white"/>
<stop offset="1" stop-color="#999999"/>
</linearGradient>
<linearGradient id="paint1_linear_48_355" x1="415" y1="9.41931" x2="415" y2="137.523" gradientUnits="userSpaceOnUse">
<stop stop-color="#0084FF" stop-opacity="0.31"/>
<stop offset="0.619" stop-color="white"/>
</linearGradient>
<clipPath id="clip0_48_355">
<rect width="830" height="146" fill="white"/>
</clipPath>
</defs>
</svg>
